<svg xmlns="http://www.w3.org/2000/svg" viewBox="0 0 512 512"><defs><linearGradient id="g" x1="0" y1="0" x2="1" y2="1"><stop offset="0" stop-color="#ef3b78"/><stop offset=".25" stop-color="#ff7a16"/><stop offset=".48" stop-color="#f4c400"/><stop offset=".7" stop-color="#4dbb42"/><stop offset="1" stop-color="#118be8"/></linearGradient><filter id="s"><feDropShadow dx="0" dy="8" stdDeviation="8" flood-opacity=".22"/></filter></defs><circle cx="256" cy="256" r="248" fill="url(#g)"/><g filter="url(#s)"><path d="M112 294V124l120-54 120 54v170z" fill="#e9f4ff"/><rect x="145" y="146" width="36" height="42" fill="#19a4e9"/><rect x="205" y="146" width="36" height="42" fill="#1678d4"/><rect x="265" y="146" width="36" height="42" fill="#19a4e9"/><rect x="145" y="210" width="36" height="42" fill="#1678d4"/><rect x="205" y="210" width="36" height="42" fill="#19a4e9"/><path d="M323 171c42 11 62 7 62 7v52c0 36-21 61-62 78-41-17-62-42-62-78v-52s20 4 62-7z" fill="#174db8" stroke="#ffd232" stroke-width="7"/><path d="m297 234 18 18 36-42" fill="none" stroke="#fff" stroke-width="13" stroke-linecap="round" stroke-linejoin="round"/></g><text x="256" y="350" text-anchor="middle" font-family="Arial Rounded MT Bold,Arial,sans-serif" font-size="118" font-weight="700" fill="#fff" letter-spacing="-12">neo</text><text x="256" y="400" text-anchor="middle" font-family="Arial,sans-serif" font-size="30" font-weight="700" fill="#fff" letter-spacing="9">SCHOOL INDIA</text></svg>